<svg width="190" height="50" viewBox="0 0 190 50" fill="none" xmlns="http://www.w3.org/2000/svg">
<g clip-path="url(#clip0_2689_519)">
<path d="M34.7102 17.3597C33.6402 14.995 32.0716 12.8598 30.0773 11.1157C28.1357 9.41742 25.9121 8.17632 23.4683 7.42909C21.7596 6.90585 19.9799 6.63963 18.1767 6.63963C15.7219 6.63963 13.3418 7.12432 11.1018 8.08085C8.93639 9.00433 6.99298 10.3262 5.32435 12.0116C3.65571 13.6952 2.34373 15.656 1.42844 17.8407C0.480392 20.1008 0 22.5022 0 24.9789C0 29.7817 1.82877 34.3239 5.14784 37.7662C8.45964 41.2013 12.896 43.1694 17.6362 43.309C17.8091 43.3145 17.9892 43.3181 18.1748 43.3181C20.4203 43.3181 22.6112 42.9106 24.6856 42.1064C28.0811 40.7919 30.9835 38.5006 33.0761 35.4823C35.2178 32.3943 36.3497 28.7628 36.3497 24.9807C36.3497 22.3204 35.7783 19.7262 34.7065 17.3634L34.7102 17.3597ZM3.19716 24.9771C3.19716 16.6419 9.91719 9.86172 18.1785 9.86172C18.3004 9.86172 18.4241 9.86172 18.5461 9.86722C16.8246 11.0367 15.3143 12.4431 14.0478 14.0275C13.7258 14.4295 13.42 14.8426 13.1307 15.2667C12.9761 15.4944 12.825 15.7257 12.6776 15.9589C12.4574 16.3096 12.25 16.6657 12.0535 17.0274C11.9425 17.2312 11.8351 17.4368 11.7314 17.6425C11.5713 17.9619 11.4202 18.285 11.2765 18.6118C11.1946 18.7991 11.1145 18.9882 11.0381 19.1791C10.918 19.4766 10.8052 19.7777 10.6996 20.0806C10.6378 20.2568 10.5795 20.4349 10.5213 20.613C10.4303 20.8939 10.3466 21.1785 10.2702 21.4649C10.2247 21.632 10.181 21.8009 10.1392 21.9698C10.0737 22.2378 10.0118 22.5077 9.95722 22.7813C9.92447 22.941 9.89353 23.1007 9.86624 23.2623C9.82075 23.5193 9.77889 23.7782 9.7425 24.0389C9.72066 24.1931 9.70065 24.3473 9.68245 24.5015C9.65334 24.7494 9.62968 24.9991 9.60784 25.2488C9.59693 25.3975 9.58601 25.5462 9.57691 25.6949C9.56235 25.9354 9.55326 26.1759 9.5478 26.4164C9.54416 26.5596 9.54234 26.7047 9.54234 26.8479V26.9158C9.54234 27.1269 9.54598 27.3381 9.55144 27.5474C9.55507 27.6869 9.56053 27.8264 9.56781 27.966C9.57873 28.1936 9.59329 28.4195 9.61148 28.6453C9.6224 28.7811 9.63514 28.917 9.6497 29.051C9.67153 29.2713 9.69883 29.4916 9.72794 29.7101C9.74614 29.8423 9.76434 29.9727 9.78617 30.1048C9.81893 30.3178 9.85532 30.5326 9.89535 30.7456C9.91901 30.8741 9.94448 31.0026 9.97178 31.1293C10.0136 31.3368 10.0609 31.5461 10.1101 31.7517C10.1392 31.8765 10.1701 32.0014 10.2029 32.1262C10.2556 32.33 10.3102 32.532 10.3703 32.7321C10.4049 32.8533 10.4431 32.9744 10.4795 33.0956C10.5395 33.2865 10.6014 33.4775 10.6669 33.6666C10.6687 33.6739 10.6705 33.6794 10.6742 33.6868C10.716 33.8061 10.7579 33.9236 10.8015 34.0411C10.8725 34.2339 10.9453 34.4267 11.0217 34.6176C11.7096 36.3324 12.6249 37.9443 13.7494 39.4204C7.43334 37.4541 3.19534 31.6581 3.19534 24.9771H3.19716ZM20.2784 39.9455C19.132 39.1506 18.1093 38.2179 17.2268 37.1769C17.2104 37.1567 17.1922 37.1365 17.1758 37.1163C17.094 37.0209 17.0157 36.9235 16.9375 36.8262C15.9003 35.5301 15.0759 34.076 14.49 32.5246C14.49 32.5246 14.49 32.521 14.4882 32.5191C14.4227 32.3465 14.3608 32.1721 14.3026 31.9977C14.2626 31.8784 14.2243 31.7572 14.1861 31.6379C14.1243 31.4396 14.066 31.2376 14.0114 31.0357C13.9787 30.9108 13.9459 30.7878 13.9168 30.663C13.8659 30.4574 13.8204 30.2481 13.7785 30.0388C13.753 29.9102 13.7276 29.7817 13.7057 29.6532C13.6675 29.4384 13.6348 29.2236 13.6057 29.007C13.5893 28.8729 13.5729 28.7407 13.5583 28.6049C13.5347 28.3827 13.5165 28.1587 13.5019 27.9348C13.4928 27.7971 13.4856 27.6575 13.4801 27.5198C13.4728 27.3197 13.4692 27.1178 13.4692 26.9176V26.8516H19.1247V23.0622H13.9387C13.9714 22.9281 14.0078 22.7941 14.0442 22.6601C14.1243 22.37 14.2116 22.0836 14.308 21.8027C14.3699 21.6209 14.4336 21.441 14.5028 21.2611C14.6228 20.9453 14.7502 20.635 14.8903 20.3303C14.9813 20.1302 15.0759 19.9319 15.1742 19.7354C15.3525 19.3811 15.5454 19.0341 15.7492 18.6963C15.8893 18.465 16.0349 18.2373 16.1859 18.0133C16.3333 17.793 16.488 17.5782 16.6463 17.3671C16.6518 17.3597 16.6554 17.3524 16.6627 17.3469C18.7535 14.5709 21.7377 12.5257 25.2042 11.6242C30.1119 14.257 33.1598 19.3738 33.1598 24.9771C33.1598 32.4714 27.6226 38.9045 20.2802 39.9437L20.2784 39.9455Z" fill="white"/>
<path d="M45.4517 34.188H49.7788V23.4587H62.9077V19.0892H49.7788V12.8561H62.9077V8.48476H45.4517V34.188Z" fill="white"/>
<path d="M76.3624 8.48476C72.8377 8.48476 69.8043 9.74605 67.3441 12.2301C64.8839 14.7141 63.6356 17.7783 63.6356 21.3364C63.6356 24.8944 64.8839 27.9586 67.3441 30.4427C69.8043 32.9285 72.8395 34.188 76.3642 34.188C79.8889 34.188 82.8822 32.9212 85.3443 30.4206C87.8044 27.9219 89.0509 24.8651 89.0509 21.3364C89.0509 17.8077 87.8044 14.7508 85.3443 12.2521C82.8822 9.75339 79.8616 8.48476 76.3642 8.48476H76.3624ZM76.3624 29.8166C73.9986 29.8166 72.0498 29.0143 70.4066 27.3601C68.7616 25.7096 67.9628 23.7451 67.9628 21.3566C67.9628 18.968 68.7634 16.9962 70.4084 15.3292C72.0534 13.6658 74.0004 12.8543 76.3624 12.8543C78.7243 12.8543 80.6604 13.664 82.2927 15.3255C83.9267 16.9907 84.7219 18.9643 84.7219 21.3547C84.7219 23.7451 83.9286 25.7096 82.2963 27.3619C80.6659 29.0125 78.7243 29.8148 76.3642 29.8148L76.3624 29.8166Z" fill="white"/>
<path d="M104.855 23.501C106.885 23.501 108.647 22.7611 110.09 21.3033C111.533 19.8438 112.264 18.0647 112.264 16.0121C112.264 13.9595 111.537 12.1787 110.099 10.7081C108.658 9.23382 106.898 8.48476 104.869 8.48476H90.2955V34.188H94.6245V23.501H98.6132L109.115 34.188H115.212L104.711 23.501H104.855ZM94.6245 12.8561H104.871C105.735 12.8561 106.447 13.1554 107.042 13.7704C107.644 14.3928 107.937 15.1254 107.937 16.014C107.937 16.9026 107.646 17.6259 107.049 18.2318C106.452 18.8358 105.741 19.1296 104.871 19.1296H94.6245V12.8543V12.8561Z" fill="white"/>
<path d="M130.042 8.48476H112.956V12.8561H119.192V34.188H123.519V12.8561H130.042V8.48476Z" fill="white"/>
<path d="M154.632 21.3731C154.632 17.8352 153.385 14.771 150.927 12.265C148.467 9.75523 145.444 8.48476 141.945 8.48476C138.446 8.48476 135.387 9.74605 132.925 12.2301C130.465 14.716 129.216 17.7783 129.216 21.3364C129.216 24.8944 130.465 27.9586 132.925 30.4427C135.385 32.9285 138.42 34.188 141.945 34.188C146.716 34.188 150.507 31.882 153.212 27.3362L153.755 26.4256L149.993 24.2243L149.468 25.1037C147.571 28.2762 145.111 29.8166 141.945 29.8166C139.778 29.8166 137.951 29.1245 136.355 27.6979C135.058 26.5413 134.224 25.1735 133.827 23.5413H154.634V21.3731H154.632ZM136.373 14.9877C137.984 13.5538 139.807 12.8561 141.945 12.8561C144.083 12.8561 145.894 13.5593 147.49 15.0042C148.787 16.1792 149.622 17.5507 150.021 19.1736H133.826C134.226 17.5323 135.065 16.1553 136.373 14.9877Z" fill="white"/>
<path d="M46.0576 38.6585H45.4517V43.3585H46.0576V38.6585Z" fill="white"/>
<path d="M49.7788 38.6585C49.2348 38.6585 48.7726 38.8494 48.4014 39.224V38.6585H47.7954V43.3585H48.4014V40.6652C48.4014 40.2705 48.5324 39.9473 48.8017 39.6738C49.071 39.4021 49.3913 39.2699 49.7788 39.2699C50.1664 39.2699 50.4794 39.4039 50.7487 39.6793C51.018 39.9547 51.1491 40.2778 51.1491 40.667V43.3604H51.755V40.667C51.755 40.1144 51.5621 39.6371 51.18 39.2478C50.7979 38.8586 50.3266 38.6603 49.7807 38.6603L49.7788 38.6585Z" fill="white"/>
<path d="M55.4762 38.6585C54.9322 38.6585 54.47 38.8494 54.0987 39.224V38.6585H53.4928V43.3585H54.0987V40.6652C54.0987 40.2705 54.2298 39.9473 54.4991 39.6738C54.7684 39.4021 55.0886 39.2699 55.4762 39.2699C55.8638 39.2699 56.1768 39.4039 56.4461 39.6793C56.7154 39.9547 56.8464 40.2778 56.8464 40.667V43.3604H57.4524V40.667C57.4524 40.1144 57.2595 39.6371 56.8774 39.2478C56.4953 38.8586 56.024 38.6603 55.4781 38.6603L55.4762 38.6585Z" fill="white"/>
<path d="M61.5194 38.6585C60.8734 38.6585 60.3184 38.888 59.8689 39.3433C59.4195 39.7968 59.1902 40.3586 59.1902 41.0085C59.1902 41.6584 59.4176 42.2202 59.8689 42.6737C60.3184 43.1272 60.8752 43.3585 61.5194 43.3585C62.1635 43.3585 62.7112 43.1272 63.1625 42.67C63.612 42.2129 63.8413 41.6548 63.8413 41.0085C63.8413 40.3623 63.6138 39.8041 63.1625 39.347C62.7112 38.8898 62.1599 38.6585 61.5194 38.6585ZM61.5194 42.7472C61.0426 42.7472 60.6314 42.5783 60.2984 42.2441C59.9654 41.91 59.7961 41.495 59.7961 41.0122C59.7961 40.5293 59.9654 40.1126 60.2984 39.7766C60.6314 39.4406 61.0426 39.268 61.5194 39.268C61.9961 39.268 62.4055 39.4388 62.7367 39.7748C63.0679 40.1107 63.2353 40.5275 63.2353 41.0104C63.2353 41.4932 63.0679 41.9081 62.7367 42.2423C62.4055 42.5764 61.9961 42.7453 61.5194 42.7453V42.7472Z" fill="white"/>
<path d="M67.6698 42.3579L66.2104 38.6585H65.5389L67.435 43.3585H67.9391L69.6714 38.6585H69.0254L67.6698 42.3579Z" fill="white"/>
<path d="M75.4106 39.4314C74.9666 38.9174 74.3916 38.6585 73.6947 38.6585C73.0542 38.6585 72.5028 38.8898 72.0515 39.3452C71.6021 39.8005 71.3728 40.3586 71.3728 41.0048C71.3728 41.6511 71.6003 42.2184 72.0479 42.6737C72.4955 43.129 73.0487 43.3604 73.6947 43.3604C74.3916 43.3604 74.9666 43.1033 75.4106 42.5929V43.3604H76.0166V38.6603H75.4106V39.4333V39.4314ZM73.6947 42.7472C73.2179 42.7472 72.8067 42.5783 72.4773 42.2423C72.1462 41.9063 71.9787 41.4914 71.9787 41.0067C71.9787 40.522 72.148 40.1144 72.481 39.7766C72.814 39.4388 73.2216 39.268 73.6947 39.268C74.1678 39.268 74.5754 39.4388 74.9084 39.7766C75.2414 40.1144 75.4106 40.5275 75.4106 41.0067C75.4106 41.4859 75.2432 41.9063 74.9121 42.2423C74.5809 42.5764 74.1714 42.7472 73.6947 42.7472Z" fill="white"/>
<path d="M77.7544 39.2699H78.9517V43.3585H79.5559V39.2699H80.8078V38.6585H77.7544V39.2699Z" fill="white"/>
<path d="M83.1533 38.6585H82.5474V43.3585H83.1533V38.6585Z" fill="white"/>
<path d="M87.2221 38.6585C86.5761 38.6585 86.0211 38.888 85.5717 39.3433C85.1222 39.7968 84.8929 40.3568 84.8929 41.0085C84.8929 41.6603 85.1204 42.2202 85.5717 42.6737C86.0211 43.1272 86.5761 43.3585 87.2221 43.3585C87.8681 43.3585 88.414 43.1272 88.8653 42.67C89.3147 42.2129 89.544 41.6548 89.544 41.0085C89.544 40.3623 89.3166 39.8041 88.8653 39.347C88.414 38.8898 87.8626 38.6585 87.2221 38.6585ZM87.2221 42.7472C86.7435 42.7472 86.3341 42.5783 86.0011 42.2441C85.6681 41.91 85.4989 41.495 85.4989 41.0122C85.4989 40.5293 85.6681 40.1126 86.0011 39.7766C86.3341 39.4388 86.7454 39.268 87.2221 39.268C87.6989 39.268 88.1083 39.4388 88.4395 39.7748C88.7707 40.1126 88.9381 40.5275 88.9381 41.0104C88.9381 41.4932 88.7707 41.9081 88.4395 42.2423C88.1083 42.5764 87.6989 42.7453 87.2221 42.7453V42.7472Z" fill="white"/>
<path d="M93.2653 38.6585C92.7212 38.6585 92.259 38.8494 91.8878 39.224V38.6585H91.2819V43.3585H91.8878V40.6652C91.8878 40.2705 92.0188 39.9473 92.2881 39.6738C92.5575 39.4021 92.8777 39.2699 93.2653 39.2699C93.6529 39.2699 93.9659 39.4039 94.2352 39.6793C94.5045 39.9547 94.6355 40.2778 94.6355 40.667V43.3604H95.2415V40.667C95.2415 40.1144 95.0486 39.6371 94.6664 39.2478C94.2843 38.8586 93.813 38.6603 93.2671 38.6603L93.2653 38.6585Z" fill="white"/>
<path d="M97.6652 43.3585H98.3512L100.387 38.6585H99.7014L97.6652 43.3585Z" fill="white"/>
<path d="M106.673 41.7888C106.287 42.4332 105.783 42.7472 105.133 42.7472C104.656 42.7472 104.245 42.5783 103.916 42.2423C103.585 41.9063 103.417 41.4914 103.417 41.0067C103.417 40.522 103.586 40.1144 103.919 39.7766C104.252 39.4388 104.66 39.268 105.133 39.268C105.774 39.268 106.274 39.5765 106.665 40.2117L106.711 40.287L107.219 39.962L107.175 39.8886C106.678 39.0716 105.99 38.6567 105.133 38.6567C104.493 38.6567 103.939 38.888 103.49 39.3433C103.041 39.7986 102.811 40.3568 102.811 41.003C102.811 41.6493 103.039 42.2166 103.485 42.6719C103.932 43.1272 104.485 43.3585 105.131 43.3585C105.999 43.3585 106.691 42.9363 107.188 42.1009L107.233 42.0256L106.714 41.7154L106.671 41.7888H106.673Z" fill="white"/>
<path d="M111.271 38.6585C110.625 38.6585 110.07 38.888 109.62 39.3433C109.171 39.7968 108.942 40.3568 108.942 41.0085C108.942 41.6603 109.169 42.2202 109.62 42.6737C110.07 43.1272 110.625 43.3585 111.271 43.3585C111.917 43.3585 112.465 43.1272 112.914 42.67C113.363 42.2129 113.593 41.6548 113.593 41.0085C113.593 40.3623 113.365 39.8041 112.914 39.347C112.463 38.8898 111.911 38.6585 111.271 38.6585ZM111.271 42.7472C110.792 42.7472 110.383 42.5783 110.048 42.2441C109.715 41.91 109.546 41.495 109.546 41.0122C109.546 40.5293 109.715 40.1126 110.048 39.7766C110.381 39.4406 110.792 39.268 111.269 39.268C111.746 39.268 112.155 39.4388 112.486 39.7748C112.818 40.1126 112.985 40.5275 112.985 41.0104C112.985 41.4932 112.818 41.9081 112.486 42.2423C112.155 42.5764 111.746 42.7453 111.269 42.7453L111.271 42.7472Z" fill="white"/>
<path d="M117.314 38.6585C116.77 38.6585 116.308 38.8494 115.937 39.224V38.6585H115.331V43.3585H115.937V40.6652C115.937 40.2705 116.068 39.9473 116.337 39.6738C116.606 39.4021 116.926 39.2699 117.314 39.2699C117.702 39.2699 118.015 39.4039 118.284 39.6793C118.553 39.9547 118.684 40.2778 118.684 40.667V43.3604H119.29V40.667C119.29 40.1144 119.097 39.6371 118.715 39.2478C118.333 38.8586 117.862 38.6603 117.316 38.6603L117.314 38.6585Z" fill="white"/>
<path d="M123.75 40.6817C123.232 40.5385 122.711 40.3935 122.2 40.2466C122.029 40.1805 121.949 40.0465 121.949 39.8262C121.949 39.7289 121.987 39.6352 122.063 39.5398C122.207 39.3598 122.476 39.2699 122.862 39.2699C123.535 39.2699 123.861 39.5893 123.861 40.2466V40.3329H124.467V40.2466C124.467 39.1928 123.927 38.6585 122.862 38.6585C122.282 38.6585 121.854 38.8237 121.592 39.1524C121.428 39.3525 121.345 39.5802 121.345 39.828C121.345 40.3329 121.563 40.667 121.996 40.8176C122.495 40.97 122.853 41.0746 123.062 41.1297C123.432 41.2233 123.674 41.3004 123.781 41.361C124.016 41.4895 124.129 41.6713 124.129 41.921C124.129 42.1982 124.009 42.402 123.763 42.5452C123.552 42.67 123.286 42.7325 122.973 42.7325C122.506 42.7325 122.16 42.6315 121.951 42.4314C121.741 42.2313 121.636 41.8953 121.636 41.4308V41.3445H121.03V41.4308C121.03 42.7013 121.683 43.3438 122.973 43.3438C123.423 43.3438 123.81 43.2429 124.129 43.0446C124.531 42.7894 124.736 42.4112 124.736 41.921C124.736 41.3482 124.407 40.9332 123.752 40.6836L123.75 40.6817Z" fill="white"/>
<path d="M130.519 41.0159C130.519 41.4969 130.352 41.9118 130.021 42.2441C129.689 42.5783 129.28 42.7472 128.803 42.7472C128.327 42.7472 127.915 42.5783 127.582 42.2441C127.249 41.91 127.08 41.4969 127.08 41.0159V38.6585H126.474V41.0122C126.474 41.6621 126.702 42.2221 127.153 42.6756C127.602 43.129 128.157 43.3585 128.803 43.3585C129.5 43.3585 130.075 43.1033 130.519 42.5966V43.3585H131.125V38.6585H130.519V41.0159Z" fill="white"/>
<path d="M133.471 38.6585H132.865V43.3585H135.407V42.7472H133.471V38.6585Z" fill="white"/>
<path d="M137.146 39.2699H138.342V43.3585H138.948V39.2699H140.198V38.6585H137.146V39.2699Z" fill="white"/>
<path d="M142.544 38.6585H141.938V43.3585H142.544V38.6585Z" fill="white"/>
<path d="M146.267 38.6585C145.723 38.6585 145.26 38.8494 144.889 39.224V38.6585H144.283V43.3585H144.889V40.6652C144.889 40.2705 145.02 39.9473 145.29 39.6738C145.559 39.4021 145.879 39.2699 146.267 39.2699C146.654 39.2699 146.967 39.4039 147.237 39.6793C147.506 39.9547 147.637 40.2778 147.637 40.667V43.3604H148.243V40.667C148.243 40.1144 148.05 39.6371 147.668 39.2478C147.286 38.8586 146.814 38.6603 146.269 38.6603L146.267 38.6585Z" fill="white"/>
<path d="M152.073 40.7074V41.3188H153.997C153.931 41.7135 153.747 42.0477 153.449 42.3139C153.125 42.6021 152.743 42.749 152.31 42.749C151.831 42.749 151.422 42.5801 151.087 42.2459C150.754 41.9118 150.585 41.4969 150.585 41.014C150.585 40.5312 150.754 40.1144 151.087 39.7784C151.42 39.4425 151.831 39.2699 152.308 39.2699C152.949 39.2699 153.449 39.5783 153.84 40.2136L153.886 40.2888L154.393 39.9639L154.348 39.8904C153.846 39.0734 153.16 38.6585 152.308 38.6585C151.662 38.6585 151.107 38.888 150.658 39.3433C150.208 39.7968 149.979 40.3568 149.979 41.0085C149.979 41.6603 150.206 42.2202 150.658 42.6737C151.107 43.1272 151.662 43.3585 152.308 43.3585C152.954 43.3585 153.5 43.1272 153.951 42.6719C154.401 42.2166 154.63 41.6584 154.63 41.0159V40.7074H152.073Z" fill="white"/>
<mask id="mask0_2689_519" style="mask-type:luminance" maskUnits="userSpaceOnUse" x="14" y="15" width="15" height="21">
<path d="M28.9099 24.9304C28.9099 27.5947 27.877 30.0322 26.1702 31.8994C25.9343 32.1566 25.6866 32.4041 25.4271 32.6389C23.6091 34.2826 21.2081 35.3544 18.5493 35.5492C18.4516 35.5556 18.3538 35.5604 18.2544 35.5652C18.1904 35.5684 18.1247 35.5716 18.059 35.5732C18.0505 35.5732 18.0404 35.5732 18.0303 35.5732C17.877 35.5764 17.722 35.5796 17.5653 35.578C17.5282 35.578 17.4912 35.578 17.4541 35.5764C17.3816 35.5748 17.3075 35.5716 17.2317 35.57C17.1525 35.5668 17.075 35.5636 16.9958 35.5588C16.9553 35.5588 16.9166 35.5556 16.8762 35.5524C16.8357 35.5492 16.7953 35.546 16.7565 35.5444C16.7565 35.5444 14.0185 32.4425 14 27.4126H19.1761V23.8506H14.5914C14.5914 23.8506 15.0885 18.7313 21.7388 15C21.7405 15.0016 21.7422 15.0016 21.7439 15.0016C25.9377 16.5462 28.9099 20.4084 28.9099 24.9304Z" fill="white"/>
</mask>
<g mask="url(#mask0_2689_519)">
<path d="M32.7781 4.17845L-10.6542 28.1132L-10.5272 28.3204L32.9051 4.38559L32.7781 4.17845Z" fill="white"/>
<path d="M32.7782 5.16029L-10.6541 29.0951L-10.527 29.3022L32.9053 5.36743L32.7782 5.16029Z" fill="white"/>
<path d="M32.7784 6.14373L-10.6539 30.0785L-10.5269 30.2856L32.9054 6.35087L32.7784 6.14373Z" fill="white"/>
<path d="M32.7785 7.12557L-10.6538 31.0603L-10.5268 31.2675L32.9055 7.33271L32.7785 7.12557Z" fill="white"/>
<path d="M32.7786 8.10742L-10.6537 32.0422L-10.5267 32.2493L32.9056 8.31456L32.7786 8.10742Z" fill="white"/>
<path d="M32.7787 9.09085L-10.6536 33.0256L-10.5265 33.2328L32.9057 9.29799L32.7787 9.09085Z" fill="white"/>
<path d="M32.7788 10.0727L-10.6534 34.0075L-10.5264 34.2146L32.9059 10.2798L32.7788 10.0727Z" fill="white"/>
<path d="M32.779 11.0545L-10.6533 34.9893L-10.5263 35.1964L32.906 11.2617L32.779 11.0545Z" fill="white"/>
<path d="M32.7791 12.038L-10.6532 35.9727L-10.5262 36.1799L32.9061 12.2451L32.7791 12.038Z" fill="white"/>
<path d="M32.7776 13.0198L-10.6547 36.9546L-10.5276 37.1617L32.9046 13.227L32.7776 13.0198Z" fill="white"/>
<path d="M32.7777 14.0017L-10.6545 37.9364L-10.5275 38.1436L32.9048 14.2088L32.7777 14.0017Z" fill="white"/>
<path d="M32.7779 14.9851L-10.6544 38.9199L-10.5274 39.127L32.9049 15.1923L32.7779 14.9851Z" fill="white"/>
<path d="M32.778 15.967L-10.6543 39.9017L-10.5273 40.1089L32.905 16.1741L32.778 15.967Z" fill="white"/>
<path d="M32.7781 16.9488L-10.6542 40.8836L-10.5272 41.0907L32.9051 17.1559L32.7781 16.9488Z" fill="white"/>
<path d="M32.7782 17.9307L-10.6541 41.8654L-10.527 42.0726L32.9053 18.1378L32.7782 17.9307Z" fill="white"/>
<path d="M32.7784 18.9141L-10.6539 42.8488L-10.5269 43.056L32.9054 19.1212L32.7784 18.9141Z" fill="white"/>
<path d="M32.7785 19.8959L-10.6538 43.8307L-10.5268 44.0378L32.9055 20.1031L32.7785 19.8959Z" fill="white"/>
<path d="M32.7786 20.8778L-10.6537 44.8125L-10.5267 45.0197L32.9056 21.0849L32.7786 20.8778Z" fill="white"/>
<path d="M32.7788 21.8612L-10.6534 45.796L-10.5264 46.0031L32.9059 22.0683L32.7788 21.8612Z" fill="white"/>
<path d="M32.779 22.8431L-10.6533 46.7778L-10.5263 46.985L32.906 23.0502L32.779 22.8431Z" fill="white"/>
<path d="M32.7791 23.8249L-10.6532 47.7597L-10.5262 47.9668L32.9061 24.032L32.7791 23.8249Z" fill="white"/>
<path d="M32.7775 24.8083L-10.6548 48.7431L-10.5278 48.9502L32.9045 25.0155L32.7775 24.8083Z" fill="white"/>
<path d="M32.7776 25.7902L-10.6547 49.7249L-10.5276 49.9321L32.9046 25.9973L32.7776 25.7902Z" fill="white"/>
<path d="M32.7777 26.772L-10.6545 50.7068L-10.5275 50.9139L32.9048 26.9792L32.7777 26.772Z" fill="white"/>
<path d="M32.7779 27.7555L-10.6544 51.6902L-10.5274 51.8974L32.9049 27.9626L32.7779 27.7555Z" fill="white"/>
<path d="M32.778 28.7373L-10.6543 52.6721L-10.5273 52.8792L32.905 28.9445L32.778 28.7373Z" fill="white"/>
</g>
<mask id="mask1_2689_519" style="mask-type:luminance" maskUnits="userSpaceOnUse" x="7" y="15" width="8" height="19">
<path d="M14.936 15C14.7372 15.2124 14.5434 15.4297 14.3564 15.6501C14.0581 15.9999 13.7751 16.3593 13.5072 16.7283C13.3623 16.9263 13.2224 17.1276 13.0876 17.3305C12.8837 17.6355 12.6917 17.9454 12.5097 18.2617C12.4069 18.4374 12.3075 18.6163 12.2115 18.7968C12.0632 19.0747 11.9217 19.3558 11.7902 19.6401C11.7144 19.8047 11.6403 19.9692 11.5695 20.1337C11.4583 20.3925 11.3538 20.6544 11.2561 20.918C11.1988 21.0729 11.1432 21.2263 11.091 21.3812C11.0084 21.6256 10.9309 21.8732 10.8585 22.1223C10.8163 22.2677 10.7759 22.4147 10.7372 22.56C10.6765 22.7948 10.6209 23.0296 10.5687 23.266C10.5383 23.405 10.5114 23.5439 10.4844 23.6845C10.4423 23.9081 10.4035 24.1349 10.3698 24.3602C10.3496 24.4943 10.3311 24.6285 10.3159 24.7627C10.2873 24.9783 10.2654 25.1955 10.2468 25.4128C10.2367 25.5422 10.2266 25.6715 10.2182 25.8009C10.2047 26.0102 10.1963 26.2194 10.1912 26.4287C10.1879 26.5548 10.1862 26.6794 10.1845 26.804V26.8631C10.1845 27.0468 10.1879 27.2305 10.1946 27.4126C10.198 27.534 10.203 27.6554 10.2098 27.7768C10.2199 27.9732 10.2334 28.1713 10.2502 28.3662C10.262 28.4844 10.2721 28.6026 10.2856 28.7208C10.3058 28.9125 10.3311 29.1025 10.358 29.2942C10.3749 29.4076 10.3917 29.5226 10.412 29.636C10.4423 29.8229 10.476 30.0082 10.5114 30.1935C10.535 30.3053 10.5569 30.4171 10.5821 30.5289C10.6226 30.7094 10.6647 30.8899 10.7102 31.0704C10.7388 31.179 10.7675 31.2876 10.7978 31.3962C10.845 31.572 10.8972 31.7477 10.9528 31.9234C10.9848 32.0288 11.0185 32.1342 11.0539 32.2396C11.1095 32.4073 11.1668 32.5719 11.2275 32.7364C11.2291 32.7428 11.2308 32.7492 11.2342 32.754C11.2713 32.8578 11.31 32.96 11.3505 33.0622C11.4162 33.2315 11.4853 33.3977 11.556 33.5638C11.5914 33.6468 11.6285 33.7299 11.6639 33.813C8.83825 31.8786 7 28.732 7 25.1764C7 20.3845 10.3412 16.3321 14.936 15Z" fill="white"/>
</mask>
<g mask="url(#mask1_2689_519)">
<path d="M33.3216 4.42443L-10.1107 28.3592L-9.9837 28.5663L33.4486 4.63157L33.3216 4.42443Z" fill="white"/>
<path d="M33.3217 5.40628L-10.1106 29.341L-9.98358 29.5482L33.4487 5.61342L33.3217 5.40628Z" fill="white"/>
<path d="M33.3218 6.38971L-10.1105 30.3245L-9.98346 30.5316L33.4488 6.59685L33.3218 6.38971Z" fill="white"/>
<path d="M33.3219 7.37156L-10.1104 31.3063L-9.98333 31.5135L33.449 7.57869L33.3219 7.37156Z" fill="white"/>
<path d="M33.3221 8.35341L-10.1102 32.2882L-9.98321 32.4953L33.4491 8.56054L33.3221 8.35341Z" fill="white"/>
<path d="M33.3222 9.33684L-10.1101 33.2716L-9.98309 33.4787L33.4492 9.54398L33.3222 9.33684Z" fill="white"/>
<path d="M33.3223 10.3187L-10.11 34.2534L-9.98297 34.4606L33.4493 10.5258L33.3223 10.3187Z" fill="white"/>
<path d="M33.3224 11.3005L-10.1099 35.2353L-9.98285 35.4424L33.4494 11.5077L33.3224 11.3005Z" fill="white"/>
<path d="M33.3225 12.284L-10.1097 36.2187L-9.98272 36.4259L33.4496 12.4911L33.3225 12.284Z" fill="white"/>
<path d="M33.3211 13.2658L-10.1112 37.2006L-9.98419 37.4077L33.4481 13.473L33.3211 13.2658Z" fill="white"/>
<path d="M33.3212 14.2477L-10.1111 38.1824L-9.98407 38.3896L33.4482 14.4548L33.3212 14.2477Z" fill="white"/>
<path d="M33.3213 15.2311L-10.111 39.1659L-9.98394 39.373L33.4483 15.4382L33.3213 15.2311Z" fill="white"/>
<path d="M33.3215 16.2129L-10.1108 40.1477L-9.98382 40.3548L33.4485 16.4201L33.3215 16.2129Z" fill="white"/>
<path d="M33.3216 17.1948L-10.1107 41.1295L-9.9837 41.3367L33.4486 17.4019L33.3216 17.1948Z" fill="white"/>
<path d="M33.3217 18.1766L-10.1106 42.1114L-9.98358 42.3185L33.4487 18.3838L33.3217 18.1766Z" fill="white"/>
<path d="M33.3218 19.1601L-10.1105 43.0948L-9.98346 43.302L33.4488 19.3672L33.3218 19.1601Z" fill="white"/>
<path d="M33.3219 20.1419L-10.1104 44.0767L-9.98333 44.2838L33.449 20.349L33.3219 20.1419Z" fill="white"/>
<path d="M33.3221 21.1238L-10.1102 45.0585L-9.98321 45.2657L33.4491 21.3309L33.3221 21.1238Z" fill="white"/>
<path d="M33.3223 22.1072L-10.11 46.042L-9.98297 46.2491L33.4493 22.3143L33.3223 22.1072Z" fill="white"/>
<path d="M33.3224 23.089L-10.1099 47.0238L-9.98285 47.2309L33.4494 23.2962L33.3224 23.089Z" fill="white"/>
<path d="M33.3225 24.0709L-10.1097 48.0056L-9.98272 48.2128L33.4496 24.278L33.3225 24.0709Z" fill="white"/>
<path d="M33.321 25.0543L-10.1113 48.9891L-9.98431 49.1962L33.448 25.2615L33.321 25.0543Z" fill="white"/>
<path d="M33.3211 26.0362L-10.1112 49.9709L-9.98419 50.1781L33.4481 26.2433L33.3211 26.0362Z" fill="white"/>
<path d="M33.3212 27.018L-10.1111 50.9528L-9.98407 51.1599L33.4482 27.2251L33.3212 27.018Z" fill="white"/>
<path d="M33.3213 28.0015L-10.111 51.9362L-9.98394 52.1434L33.4483 28.2086L33.3213 28.0015Z" fill="white"/>
<path d="M33.3215 28.9833L-10.1108 52.9181L-9.98382 53.1252L33.4485 29.1904L33.3215 28.9833Z" fill="white"/>
</g>
</g>
<defs>
<clipPath id="clip0_2689_519">
<rect width="154.634" height="48.7207" fill="white" transform="translate(0 0.639633)"/>
</clipPath>
</defs>
</svg>
