<svg width="30" height="30" class="md:w-[35px] md:h-[35px]" viewBox="0 0 31 35" fill="none" xmlns="http://www.w3.org/2000/svg"><path d="M25.2889 29.5449H30.4752L24.6406 19.2644C24.2705 18.6161 24.0844 17.9678 24.0844 17.3195C24.0844 16.6713 24.2705 16.023 24.6406 15.3747L30.4752 5.09422H25.2889L19.7305 14.7264C19.1743 15.6528 18.8981 16.5792 18.8981 17.3195C18.8981 18.0599 19.1743 18.9863 19.7305 19.9127L25.2889 29.5449ZM13.6179 16.6713C14.7303 16.6713 15.6548 16.4852 16.3971 16.023C16.9533 15.7468 17.6016 15.0966 18.1578 14.0781L23.8083 4.44593L21.3072 0L15.1945 10.1865C14.8243 10.8348 14.3621 11.2989 13.8059 11.5751C13.1576 11.9453 12.6014 12.0373 11.861 12.0373H0.00391712L2.59705 16.5753L13.6198 16.6673V16.6713H13.6179ZM21.3052 34.8252L23.8043 30.3792L18.1539 20.747C17.5977 19.7286 16.9494 19.0803 16.3931 18.8022C15.6509 18.34 14.7264 18.1539 13.614 18.1539L2.59118 18.2459L0 22.782H11.8552C12.5975 22.782 13.1517 22.874 13.8 23.2442C14.3562 23.5204 14.8185 23.9865 15.1886 24.6348L21.3013 34.8212V34.8252H21.3052Z" fill="currentColor"></path></svg>